<svg width="37" height="15" viewBox="0 0 37 15" fill="none" xmlns="http://www.w3.org/2000/svg">
<path d="M1.32031 12V0.625H4.53125C5.52083 0.625 6.39583 0.84375 7.15625 1.28125C7.91667 1.71875 8.5026 2.34115 8.91406 3.14844C9.33073 3.95573 9.54167 4.88281 9.54688 5.92969V6.65625C9.54688 7.72917 9.33854 8.66927 8.92188 9.47656C8.51042 10.2839 7.91927 10.9036 7.14844 11.3359C6.38281 11.7682 5.48958 11.9896 4.46875 12H1.32031ZM2.82031 1.85938V10.7734H4.39844C5.55469 10.7734 6.45312 10.4141 7.09375 9.69531C7.73958 8.97656 8.0625 7.95312 8.0625 6.625V5.96094C8.0625 4.66927 7.75781 3.66667 7.14844 2.95312C6.54427 2.23438 5.6849 1.86979 4.57031 1.85938H2.82031ZM11.2109 7.69531C11.2109 6.86719 11.3724 6.1224 11.6953 5.46094C12.0234 4.79948 12.4766 4.28906 13.0547 3.92969C13.638 3.57031 14.3021 3.39062 15.0469 3.39062C16.1979 3.39062 17.1276 3.78906 17.8359 4.58594C18.5495 5.38281 18.9062 6.44271 18.9062 7.76562V7.86719C18.9062 8.6901 18.7474 9.42969 18.4297 10.0859C18.1172 10.737 17.6667 11.2448 17.0781 11.6094C16.4948 11.974 15.8229 12.1562 15.0625 12.1562C13.9167 12.1562 12.987 11.7578 12.2734 10.9609C11.5651 10.1641 11.2109 9.10938 11.2109 7.79688V7.69531ZM12.6641 7.86719C12.6641 8.80469 12.8802 9.55729 13.3125 10.125C13.75 10.6927 14.3333 10.9766 15.0625 10.9766C15.7969 10.9766 16.3802 10.6901 16.8125 10.1172C17.2448 9.53906 17.4609 8.73177 17.4609 7.69531C17.4609 6.76823 17.2396 6.01823 16.7969 5.44531C16.3594 4.86719 15.776 4.57812 15.0469 4.57812C14.3333 4.57812 13.7578 4.86198 13.3203 5.42969C12.8828 5.9974 12.6641 6.8099 12.6641 7.86719ZM24.1094 10.9766C24.625 10.9766 25.0755 10.8203 25.4609 10.5078C25.8464 10.1953 26.0599 9.80469 26.1016 9.33594H27.4688C27.4427 9.82031 27.276 10.2812 26.9688 10.7188C26.6615 11.1562 26.25 11.5052 25.7344 11.7656C25.224 12.026 24.6823 12.1562 24.1094 12.1562C22.9583 12.1562 22.0417 11.7734 21.3594 11.0078C20.6823 10.237 20.3438 9.1849 20.3438 7.85156V7.60938C20.3438 6.78646 20.4948 6.05469 20.7969 5.41406C21.099 4.77344 21.5312 4.27604 22.0938 3.92188C22.6615 3.56771 23.3307 3.39062 24.1016 3.39062C25.0495 3.39062 25.8359 3.67448 26.4609 4.24219C27.0911 4.8099 27.4271 5.54688 27.4688 6.45312H26.1016C26.0599 5.90625 25.8516 5.45833 25.4766 5.10938C25.1068 4.75521 24.6484 4.57812 24.1016 4.57812C23.3672 4.57812 22.7969 4.84375 22.3906 5.375C21.9896 5.90104 21.7891 6.66406 21.7891 7.66406V7.9375C21.7891 8.91146 21.9896 9.66146 22.3906 10.1875C22.7917 10.7135 23.3646 10.9766 24.1094 10.9766ZM34.0156 9.75781C34.0156 9.36719 33.8672 9.0651 33.5703 8.85156C33.2786 8.63281 32.7656 8.44531 32.0312 8.28906C31.3021 8.13281 30.7214 7.94531 30.2891 7.72656C29.862 7.50781 29.5443 7.2474 29.3359 6.94531C29.1328 6.64323 29.0312 6.28385 29.0312 5.86719C29.0312 5.17448 29.3229 4.58854 29.9062 4.10938C30.4948 3.63021 31.2448 3.39062 32.1562 3.39062C33.1146 3.39062 33.8906 3.63802 34.4844 4.13281C35.0833 4.6276 35.3828 5.26042 35.3828 6.03125H33.9297C33.9297 5.63542 33.7604 5.29427 33.4219 5.00781C33.0885 4.72135 32.6667 4.57812 32.1562 4.57812C31.6302 4.57812 31.2188 4.69271 30.9219 4.92188C30.625 5.15104 30.4766 5.45052 30.4766 5.82031C30.4766 6.16927 30.6146 6.43229 30.8906 6.60938C31.1667 6.78646 31.6641 6.95573 32.3828 7.11719C33.1068 7.27865 33.6927 7.47135 34.1406 7.69531C34.5885 7.91927 34.9193 8.1901 35.1328 8.50781C35.3516 8.82031 35.4609 9.20312 35.4609 9.65625C35.4609 10.4115 35.1589 11.0182 34.5547 11.4766C33.9505 11.9297 33.1667 12.1562 32.2031 12.1562C31.526 12.1562 30.9271 12.0365 30.4062 11.7969C29.8854 11.5573 29.4766 11.224 29.1797 10.7969C28.888 10.3646 28.7422 9.89844 28.7422 9.39844H30.1875C30.2135 9.88281 30.4062 10.2682 30.7656 10.5547C31.1302 10.8359 31.6094 10.9766 32.2031 10.9766C32.75 10.9766 33.1875 10.8672 33.5156 10.6484C33.849 10.4245 34.0156 10.1276 34.0156 9.75781Z" fill="#213F7D"/>
<path d="M0 13.5625H36.25V14.3438H0V13.5625Z" fill="#213F7D"/>
</svg>
