<svg width="447" height="50" viewBox="0 0 447 50" fill="none" xmlns="http://www.w3.org/2000/svg">
<rect width="447" height="50" rx="5" fill="white"/>
<rect x="1" y="1" width="445" height="48" rx="4" stroke="#545F7D" stroke-opacity="0.15" stroke-width="2"/>
<path opacity="0.6" d="M18.324 30.604H23.63V31.5H17.316V21.588H23.462V22.484H18.324V25.9H23.126V26.782H18.324V30.604ZM26.4832 26.068C26.6698 25.6853 26.9545 25.3773 27.3372 25.144C27.7292 24.9013 28.1632 24.78 28.6392 24.78C28.8165 24.78 28.9985 24.7987 29.1852 24.836C29.3812 24.8733 29.5678 24.948 29.7452 25.06C29.9318 25.1627 30.0998 25.3027 30.2492 25.48C30.4078 25.6573 30.5432 25.886 30.6552 26.166C30.8792 25.718 31.1825 25.3773 31.5652 25.144C31.9572 24.9013 32.4192 24.78 32.9512 24.78C33.7818 24.78 34.4025 25.0273 34.8132 25.522C35.2332 26.0167 35.4432 26.67 35.4432 27.482V31.5H34.4912V27.874C34.4912 27.1833 34.3605 26.628 34.0992 26.208C33.8472 25.788 33.4132 25.578 32.7972 25.578C32.4518 25.578 32.1578 25.648 31.9152 25.788C31.6818 25.928 31.4905 26.1147 31.3412 26.348C31.2012 26.572 31.0985 26.8287 31.0332 27.118C30.9678 27.4073 30.9352 27.706 30.9352 28.014V31.5H29.9832V27.678C29.9832 27.3607 29.9598 27.0713 29.9132 26.81C29.8665 26.5487 29.7825 26.3293 29.6612 26.152C29.5492 25.9653 29.3905 25.8253 29.1852 25.732C28.9798 25.6293 28.7185 25.578 28.4012 25.578C28.1772 25.578 27.9485 25.6293 27.7152 25.732C27.4912 25.8347 27.2858 25.9933 27.0992 26.208C26.9218 26.4133 26.7772 26.6793 26.6652 27.006C26.5532 27.3233 26.4972 27.7013 26.4972 28.14V31.5H25.5452V26.39C25.5452 26.2127 25.5405 25.984 25.5312 25.704C25.5218 25.424 25.5078 25.172 25.4892 24.948H26.3992C26.4178 25.1253 26.4318 25.3213 26.4412 25.536C26.4505 25.7507 26.4552 25.928 26.4552 26.068H26.4832ZM42.0345 27.272C42.0345 26.7027 41.8852 26.278 41.5865 25.998C41.2879 25.718 40.8539 25.578 40.2845 25.578C39.8925 25.578 39.5285 25.648 39.1925 25.788C38.8565 25.928 38.5719 26.1147 38.3385 26.348L37.8065 25.718C38.0772 25.4473 38.4319 25.2233 38.8705 25.046C39.3185 24.8687 39.8225 24.78 40.3825 24.78C40.7372 24.78 41.0685 24.8313 41.3765 24.934C41.6845 25.0273 41.9552 25.172 42.1885 25.368C42.4219 25.564 42.6039 25.8113 42.7345 26.11C42.8652 26.4087 42.9305 26.7587 42.9305 27.16V30.03C42.9305 30.282 42.9399 30.5433 42.9585 30.814C42.9772 31.0847 43.0052 31.3133 43.0425 31.5H42.1885C42.1605 31.3413 42.1372 31.1687 42.1185 30.982C42.0999 30.7953 42.0905 30.6133 42.0905 30.436H42.0625C41.7639 30.8747 41.4232 31.192 41.0405 31.388C40.6672 31.5747 40.2145 31.668 39.6825 31.668C39.4305 31.668 39.1692 31.6307 38.8985 31.556C38.6372 31.4907 38.3945 31.3787 38.1705 31.22C37.9559 31.0613 37.7739 30.856 37.6245 30.604C37.4845 30.352 37.4145 30.044 37.4145 29.68C37.4145 29.176 37.5405 28.7793 37.7925 28.49C38.0539 28.1913 38.3992 27.972 38.8285 27.832C39.2579 27.6827 39.7479 27.5893 40.2985 27.552C40.8585 27.5053 41.4372 27.482 42.0345 27.482V27.272ZM41.7545 28.224C41.3625 28.224 40.9659 28.2427 40.5645 28.28C40.1725 28.308 39.8132 28.3733 39.4865 28.476C39.1692 28.5693 38.9079 28.7093 38.7025 28.896C38.4972 29.0827 38.3945 29.33 38.3945 29.638C38.3945 29.8713 38.4365 30.0673 38.5205 30.226C38.6139 30.3847 38.7352 30.5153 38.8845 30.618C39.0339 30.7113 39.1972 30.7813 39.3745 30.828C39.5612 30.8653 39.7479 30.884 39.9345 30.884C40.2705 30.884 40.5692 30.828 40.8305 30.716C41.0919 30.5947 41.3112 30.436 41.4885 30.24C41.6659 30.0347 41.8012 29.8013 41.8945 29.54C41.9879 29.2787 42.0345 29.0033 42.0345 28.714V28.224H41.7545ZM46.349 31.5H45.397V24.948H46.349V31.5ZM46.545 22.428C46.545 22.624 46.475 22.7873 46.335 22.918C46.195 23.0393 46.041 23.1 45.873 23.1C45.705 23.1 45.551 23.0393 45.411 22.918C45.271 22.7873 45.201 22.624 45.201 22.428C45.201 22.232 45.271 22.0733 45.411 21.952C45.551 21.8213 45.705 21.756 45.873 21.756C46.041 21.756 46.195 21.8213 46.335 21.952C46.475 22.0733 46.545 22.232 46.545 22.428ZM49.863 31.5H48.911V20.916H49.863V31.5Z" fill="#545F7D"/>
</svg>
