<svg width="447" height="34" viewBox="0 0 447 48" fill="none" xmlns="http://www.w3.org/2000/svg">
<rect width="447" height="48" rx="8" fill="#39CDCC"/>
<path d="M197.521 19.088H199.285V27.432H203.499V29H197.521V19.088ZM205.171 24.016C205.171 23.2227 205.302 22.5087 205.563 21.874C205.834 21.23 206.203 20.684 206.669 20.236C207.145 19.788 207.705 19.4427 208.349 19.2C209.003 18.9573 209.712 18.836 210.477 18.836C211.252 18.836 211.966 18.9573 212.619 19.2C213.273 19.4427 213.837 19.788 214.313 20.236C214.789 20.684 215.158 21.23 215.419 21.874C215.69 22.5087 215.825 23.2227 215.825 24.016C215.825 24.7907 215.69 25.5 215.419 26.144C215.158 26.7787 214.789 27.3293 214.313 27.796C213.837 28.2533 213.273 28.6127 212.619 28.874C211.966 29.126 211.252 29.252 210.477 29.252C209.712 29.252 209.003 29.126 208.349 28.874C207.705 28.6127 207.145 28.2533 206.669 27.796C206.203 27.3293 205.834 26.7787 205.563 26.144C205.302 25.5 205.171 24.7907 205.171 24.016ZM207.089 24.016C207.089 24.548 207.169 25.038 207.327 25.486C207.495 25.9247 207.729 26.3073 208.027 26.634C208.335 26.9607 208.695 27.2173 209.105 27.404C209.525 27.5813 209.987 27.67 210.491 27.67C210.995 27.67 211.457 27.5813 211.877 27.404C212.297 27.2173 212.657 26.9607 212.955 26.634C213.263 26.3073 213.497 25.9247 213.655 25.486C213.823 25.038 213.907 24.548 213.907 24.016C213.907 23.5027 213.823 23.0267 213.655 22.588C213.497 22.1493 213.268 21.7667 212.969 21.44C212.671 21.1133 212.311 20.8567 211.891 20.67C211.471 20.4833 211.005 20.39 210.491 20.39C209.978 20.39 209.511 20.4833 209.091 20.67C208.681 20.8567 208.326 21.1133 208.027 21.44C207.729 21.7667 207.495 22.1493 207.327 22.588C207.169 23.0267 207.089 23.5027 207.089 24.016ZM227.608 28.482C227.104 28.7247 226.549 28.9113 225.942 29.042C225.345 29.182 224.654 29.252 223.87 29.252C223.068 29.252 222.335 29.126 221.672 28.874C221.01 28.6127 220.44 28.2533 219.964 27.796C219.488 27.3293 219.115 26.7787 218.844 26.144C218.583 25.5 218.452 24.7907 218.452 24.016C218.452 23.2227 218.588 22.5087 218.858 21.874C219.138 21.23 219.516 20.684 219.992 20.236C220.478 19.788 221.047 19.4427 221.7 19.2C222.354 18.9573 223.063 18.836 223.828 18.836C224.622 18.836 225.345 18.9527 225.998 19.186C226.661 19.41 227.193 19.7087 227.594 20.082L226.376 21.398C226.124 21.118 225.77 20.88 225.312 20.684C224.864 20.488 224.374 20.39 223.842 20.39C223.32 20.39 222.844 20.4833 222.414 20.67C221.994 20.8567 221.635 21.1133 221.336 21.44C221.038 21.7667 220.804 22.1493 220.636 22.588C220.478 23.0267 220.398 23.5027 220.398 24.016C220.398 24.548 220.478 25.038 220.636 25.486C220.804 25.9247 221.038 26.3073 221.336 26.634C221.644 26.9607 222.013 27.2173 222.442 27.404C222.881 27.5813 223.376 27.67 223.926 27.67C224.682 27.67 225.34 27.5533 225.9 27.32V24.8H223.814V23.344H227.608V28.482ZM236.056 19.088H237.82V29H236.056V19.088ZM241.408 19.088H243.746L248.352 26.508H248.38V19.088H250.144V29H247.904L243.2 21.342H243.172V29H241.408V19.088Z" fill="white"/>
</svg>
